<svg width="59" height="48" viewBox="0 0 59 48" fill="none" xmlns="http://www.w3.org/2000/svg">
<path d="M55.5895 35.5132C54.6743 34.2981 53.2538 32.8828 51.5851 31.527C50.3774 30.5445 46.2312 27.3407 43.5653 27.3407C42.7099 27.3407 42.1669 27.6382 41.8633 27.8852L38.3132 30.7716C38.2534 30.8203 38.0628 30.8762 37.7193 30.8762C35.7493 30.8762 31.572 29.1022 27.3992 25.7091C21.8347 21.1803 20.4962 17.3834 21.1766 16.8299L24.7222 13.9435C25.028 13.6947 25.3937 13.253 25.3937 12.5589C25.3959 10.3882 21.4558 7.01502 20.248 6.03245C19.0425 5.04988 14.8985 1.84615 12.2282 1.84615C11.375 1.84615 10.8321 2.14183 10.5262 2.39063L3.42824 8.16526C1.33187 9.86899 2.0964 13.2025 5.70191 18.0721C8.83096 22.2981 13.7838 27.2524 19.6431 32.0192C30.0363 40.4748 40.5603 46.1556 45.8301 46.1538C47.142 46.1538 48.1946 45.8365 48.9636 45.2109L56.0615 39.4363C57.5973 38.1869 56.0859 36.1749 55.5895 35.5132ZM46.5569 43.253C46.4771 43.3161 46.2467 43.3846 45.8301 43.3846C42.2423 43.3846 32.6889 38.7151 22.0497 30.0613C16.3788 25.4477 11.6099 20.6827 8.61822 16.6424C5.24762 12.0919 5.56451 10.3431 5.83487 10.1232L12.5162 4.6875C13.3872 4.96154 15.406 6.00721 17.8414 7.99039C20.2768 9.97356 21.5644 11.6142 21.9012 12.3227L18.7699 14.872C15.5057 17.5276 19.7073 23.3654 24.9926 27.6671C29.5266 31.3558 34.4041 33.6454 37.7193 33.6454C39.2684 33.6454 40.2057 33.1478 40.7199 32.7296L43.8534 30.1821C44.7243 30.4561 46.7409 31.5036 49.1785 33.485C51.6139 35.4663 52.9015 37.1088 53.2383 37.8173L46.5569 43.253Z" fill="#F8B100"/>
</svg>
