<svg width="64" height="64" viewBox="0 0 64 64" fill="none" xmlns="http://www.w3.org/2000/svg">
<path d="M44.5 9C47.284 9.00265 49.9531 10.1097 51.9217 12.0783C53.8903 14.0469 54.9974 16.716 55 19.5V44.5C54.9974 47.284 53.8903 49.9531 51.9217 51.9217C49.9531 53.8903 47.284 54.9974 44.5 55H19.5C16.716 54.9974 14.0469 53.8903 12.0783 51.9217C10.1097 49.9531 9.00265 47.284 9 44.5V19.5C9.00265 16.716 10.1097 14.0469 12.0783 12.0783C14.0469 10.1097 16.716 9.00265 19.5 9H44.5ZM44.5 7H19.5C16.1848 7 13.0054 8.31696 10.6612 10.6612C8.31696 13.0054 7 16.1848 7 19.5V44.5C7 46.1415 7.32332 47.767 7.95151 49.2835C8.57969 50.8001 9.50043 52.1781 10.6612 53.3388C13.0054 55.683 16.1848 57 19.5 57H44.5C46.1415 57 47.767 56.6767 49.2835 56.0485C50.8001 55.4203 52.1781 54.4996 53.3388 53.3388C54.4996 52.1781 55.4203 50.8001 56.0485 49.2835C56.6767 47.767 57 46.1415 57 44.5V19.5C57 17.8585 56.6767 16.233 56.0485 14.7165C55.4203 13.1999 54.4996 11.8219 53.3388 10.6612C52.1781 9.50043 50.8001 8.57969 49.2835 7.95151C47.767 7.32332 46.1415 7 44.5 7Z" fill="#F8B100"/>
<path d="M32 22C33.9778 22 35.9112 22.5865 37.5557 23.6853C39.2002 24.7841 40.4819 26.3459 41.2388 28.1732C41.9957 30.0004 42.1937 32.0111 41.8079 33.9509C41.422 35.8907 40.4696 37.6725 39.0711 39.0711C37.6725 40.4696 35.8907 41.422 33.9509 41.8079C32.0111 42.1937 30.0004 41.9957 28.1732 41.2388C26.3459 40.4819 24.7841 39.2002 23.6853 37.5557C22.5865 35.9112 22 33.9778 22 32C22 29.3478 23.0536 26.8043 24.9289 24.9289C26.8043 23.0536 29.3478 22 32 22ZM32 20C29.6266 20 27.3066 20.7038 25.3332 22.0224C23.3598 23.3409 21.8217 25.2151 20.9135 27.4078C20.0052 29.6005 19.7676 32.0133 20.2306 34.3411C20.6936 36.6689 21.8365 38.8071 23.5147 40.4853C25.193 42.1635 27.3311 43.3064 29.6589 43.7694C31.9867 44.2324 34.3995 43.9948 36.5922 43.0866C38.7849 42.1783 40.6591 40.6402 41.9776 38.6668C43.2962 36.6935 44 34.3734 44 32C44 28.8174 42.7357 25.7652 40.4853 23.5147C38.2348 21.2643 35.1826 20 32 20Z" fill="#F8B100"/>
<path d="M46 15C46.3956 15 46.7822 15.1173 47.1111 15.3371C47.44 15.5568 47.6964 15.8692 47.8478 16.2346C47.9991 16.6001 48.0387 17.0022 47.9616 17.3902C47.8844 17.7781 47.6939 18.1345 47.4142 18.4142C47.1345 18.6939 46.7781 18.8844 46.3902 18.9616C46.0022 19.0387 45.6001 18.9991 45.2346 18.8478C44.8692 18.6964 44.5568 18.44 44.3371 18.1111C44.1173 17.7822 44 17.3956 44 17C44 16.4696 44.2107 15.9609 44.5858 15.5858C44.9609 15.2107 45.4696 15 46 15ZM46 13C45.2089 13 44.4355 13.2346 43.7777 13.6741C43.1199 14.1136 42.6072 14.7384 42.3045 15.4693C42.0017 16.2002 41.9225 17.0044 42.0769 17.7804C42.2312 18.5563 42.6122 19.269 43.1716 19.8284C43.731 20.3878 44.4437 20.7688 45.2196 20.9231C45.9956 21.0775 46.7998 20.9983 47.5307 20.6955C48.2616 20.3928 48.8864 19.8801 49.3259 19.2223C49.7654 18.5645 50 17.7911 50 17C50 15.9391 49.5786 14.9217 48.8284 14.1716C48.0783 13.4214 47.0609 13 46 13Z" fill="#F8B100"/>
</svg>
