<svg width="82" height="76" viewBox="0 0 82 76" fill="none" xmlns="http://www.w3.org/2000/svg">
<ellipse cx="41" cy="38" rx="41" ry="38" fill="#FFCA40"/>
<path d="M38.59 46.75C44.25 43.87 48.88 39.24 51.76 33.57L47.35 29.17C46.8 28.62 46.64 27.83 46.86 27.14C47.6 24.9 48 22.49 48 20C48 18.89 48.89 18 50 18H57C58.11 18 59 18.89 59 20C59 38.78 43.78 54 25 54C23.89 54 23 53.1 23 52V45C23 43.89 23.89 43 25 43C27.49 43 29.9 42.6 32.14 41.86C32.83 41.64 33.62 41.8 34.17 42.35L38.59 46.75Z" fill="#187321"/>
</svg>
