<svg width="60" height="58" viewBox="0 0 60 58" fill="none" xmlns="http://www.w3.org/2000/svg">
<path d="M29.9936 1.80542C18.6249 1.80542 9.37043 10.7515 9.37042 21.7411C9.37042 41.0782 28.8309 55.779 28.8309 55.779C29.1631 56.0353 29.5755 56.1748 30.0005 56.1748C30.4255 56.1748 30.8379 56.0353 31.1701 55.779C31.1701 55.779 50.6306 41.0782 50.6306 21.7411C50.6305 10.7515 41.3622 1.80542 29.9936 1.80542ZM29.9936 5.43131C39.3356 5.43131 46.8796 12.7105 46.8797 21.7411C46.8797 37.5605 32.0611 50.0589 30.0074 51.7517C27.9635 50.0674 13.1213 37.5666 13.1213 21.7411C13.1213 12.7105 20.6516 5.43131 29.9936 5.43131Z" fill="#F8B100"/>
<path d="M29.9936 12.6831C24.8381 12.6831 20.6232 16.7575 20.6232 21.7411C20.6231 26.7248 24.8381 30.8125 29.9936 30.8125C35.149 30.8125 39.3778 26.7248 39.3778 21.7411C39.3778 16.7575 35.149 12.6831 29.9936 12.6831ZM29.9936 16.309C33.1224 16.309 35.6268 18.7166 35.6269 21.7411C35.6269 24.7656 33.1224 27.1866 29.9936 27.1866C26.8647 27.1866 24.3741 24.7656 24.3741 21.7411C24.3741 18.7166 26.8648 16.309 29.9936 16.309Z" fill="#F8B100"/>
</svg>
