<svg width="52" height="56" viewBox="0 0 52 56" fill="none" xmlns="http://www.w3.org/2000/svg">
<path d="M52 27.2533C52 42.3111 40.56 54.5067 26.4622 54.5067C22.0133 54.5067 17.7956 53.2622 14.0978 51.0844L0 56L4.62222 41.3778C2.31111 37.2711 0.982222 32.4178 0.982222 27.3156C0.924444 12.1956 12.3644 0 26.4622 0C40.56 0 52 12.1956 52 27.2533ZM26.4622 4.35556C14.6178 4.35556 5.02667 14.6222 5.02667 27.2533C5.02667 32.2933 6.52889 36.8978 9.12889 40.6933L6.47111 49.2178L14.7333 46.4178C18.1422 48.8444 22.1867 50.2133 26.52 50.2133C38.3067 50.2133 47.9556 39.9467 47.9556 27.2533C47.9556 14.56 38.3067 4.35556 26.4622 4.35556ZM39.3467 33.5378C39.1733 33.2889 38.7689 33.1022 38.1333 32.7289C37.4978 32.4178 34.4356 30.8 33.8578 30.5511C33.28 30.3022 32.8756 30.24 32.4711 30.8622C32.0667 31.5467 30.8533 33.04 30.5067 33.4756C30.16 33.9111 29.7556 33.9733 29.1778 33.6622C28.5422 33.3511 26.52 32.6044 24.1511 30.3644C22.3022 28.6222 21.0311 26.3822 20.6844 25.76C20.3378 25.0756 20.6267 24.7022 20.9733 24.3911C21.2622 24.08 21.6089 23.5822 21.8978 23.2089C22.1867 22.8356 22.3022 22.5244 22.5333 22.0889C22.7644 21.6533 22.6489 21.28 22.4756 20.9067C22.3022 20.5956 21.0889 17.2978 20.5689 15.9289C20.0489 14.6222 19.5289 14.8089 19.1822 14.8089C18.8356 14.8089 18.3733 14.7467 17.9689 14.7467C17.5644 14.7467 16.8711 14.9333 16.2933 15.5556C15.7156 16.24 14.0978 17.8578 14.0978 21.1556C14.0978 24.4533 16.3511 27.6267 16.64 28.0622C16.9289 28.4978 20.9733 35.4667 27.3289 38.1422C33.6844 40.8178 33.6844 39.9467 34.84 39.8222C35.9956 39.6978 38.5378 38.2044 39.0578 36.6489C39.52 35.1556 39.52 33.8489 39.3467 33.5378Z" fill="#F8B100"/>
</svg>
