<svg width="244" height="62" viewBox="0 0 244 62" fill="none" xmlns="http://www.w3.org/2000/svg">
<path d="M0.0112305 57.0932C0.0112305 60.87 1.29575 62.0001 4.00104 62.0001C4.77936 62.0001 5.76731 61.8674 6.43441 61.6545L6.12542 60.4444C5.63163 60.6308 4.77936 60.7503 4.14933 60.7503C2.12337 60.7503 1.3699 60.2183 1.3699 57.1066C1.3699 53.9813 2.12337 53.5556 4.14933 53.5556C4.77936 53.5556 5.63163 53.6753 6.12542 53.8747L6.43441 52.6644C5.77973 52.465 4.77936 52.3187 4.00104 52.3187C1.29575 52.3187 0.0112305 53.3028 0.0112305 57.0932ZM14.9758 61.8142V53.7021H17.9157V52.5448H10.7515V53.7021H13.7035V61.8142H14.9758ZM24.419 57.4257V53.6887H27.1366C27.9393 53.6887 28.3596 54.3802 28.3596 55.63C28.3596 56.7472 27.9393 57.4257 27.0871 57.4257H24.419ZM24.419 61.8142V58.5827H27.3714C29.0882 58.5827 29.7431 57.1594 29.7431 55.6436C29.7431 53.9414 29.1872 52.5448 27.3219 52.5448H23.1592V61.8142H24.419ZM38.9144 52.3187C36.2093 52.3187 34.9124 53.3427 34.9124 57.1195C34.9124 60.9365 36.2093 62.0001 38.9144 62.0001C41.632 62.0001 42.9168 60.9365 42.9168 57.1195C42.9168 53.3427 41.6195 52.3187 38.9144 52.3187ZM38.9144 60.7902C36.8764 60.7902 36.2711 60.1516 36.2711 57.1465C36.2711 54.0344 36.8764 53.5157 38.9144 53.5157C40.965 53.5157 41.5825 54.0344 41.5825 57.1465C41.5825 60.1516 40.965 60.7902 38.9144 60.7902ZM55.7813 52.5448H54.2621C53.0022 55.0585 51.5816 57.6382 50.0745 60.165V52.5448H48.8391V61.8142H50.5069C51.9027 59.5402 53.2986 56.9735 54.5461 54.5265V61.8142H55.7813V52.5448ZM65.2613 61.8142V53.7021H68.2012V52.5448H61.037V53.7021H63.989V61.8142H65.2613ZM73.4569 52.5448V61.8142H79.5218V60.6571H74.7046V57.4787H78.1263V56.3351H74.7046V53.7021H79.5218V52.5448H73.4569ZM90.4103 53.7021V61.8142H91.6581V52.5448H86.0995C85.9636 55.9228 85.1977 59.0614 84.3579 61.8142H85.7043C86.5319 59.2608 87.0998 56.1756 87.2606 53.7021H90.4103ZM99.2733 60.6837V57.2792H102.225C102.991 57.2792 103.337 57.9443 103.337 59.0082C103.337 60.0453 103.053 60.6837 102.275 60.6837H99.2733ZM98.0134 52.5448V61.8142H102.509C103.967 61.8142 104.696 60.8168 104.696 59.0215C104.696 57.3724 104.164 56.1487 102.398 56.1487H99.2733V52.5448H98.0134ZM111.631 57.4921H115.757V61.8142H117.005V52.5448H115.757V56.2554H111.631V52.5448H110.384V61.8142H111.631V57.4921ZM124.62 60.6837V57.2792H127.572C128.338 57.2792 128.684 57.9443 128.684 59.0082C128.684 60.0453 128.399 60.6837 127.621 60.6837H124.62ZM123.36 52.5448V61.8142H127.856C129.314 61.8142 130.042 60.8168 130.042 59.0215C130.042 57.3724 129.511 56.1487 127.745 56.1487H124.62V52.5448H123.36ZM130.907 52.5448V61.8142H132.167V52.5448H130.907ZM145.489 52.5448H143.97C142.71 55.0585 141.289 57.6382 139.782 60.165V52.5448H138.547V61.8142H140.214C141.61 59.5402 143.006 56.9735 144.254 54.5265V61.8142H145.489V52.5448ZM140.301 50.231C140.301 51.4411 140.918 51.9863 142.043 51.9863C143.191 51.9863 143.784 51.4411 143.784 50.231H142.969C142.969 50.9224 142.648 51.0687 142.067 51.0687C141.462 51.0687 141.166 50.9224 141.166 50.231H140.301ZM167.294 58.9946C166.528 56.8671 165.602 54.6063 164.688 52.5448H162.909V61.8142H164.119V54.2607C165.009 56.3482 165.935 58.7687 166.726 60.8832H167.689C168.492 58.7952 169.443 56.4015 170.357 54.2607V61.8142H171.592V52.5448H169.913C168.986 54.5929 168.06 56.8537 167.294 58.9946ZM183.79 61.8142H185.199C184.198 59.3007 182.95 55.6037 182.024 52.5448H179.986C178.862 55.4839 177.7 58.8884 176.799 61.8142H178.096C178.343 60.9764 178.602 60.1117 178.874 59.2341H182.864C183.173 60.165 183.506 61.0427 183.79 61.8142ZM181.122 53.6622C181.53 55.0717 181.999 56.6144 182.493 58.077H179.232C179.726 56.5745 180.245 55.085 180.776 53.6622H181.122ZM191.578 61.8142V53.7021H195.902V52.5448H190.331V61.8142H191.578ZM205.579 61.8142H206.988C205.987 59.3007 204.739 55.6037 203.813 52.5448H201.775C200.651 55.4839 199.49 58.8884 198.588 61.8142H199.885C200.132 60.9764 200.391 60.1117 200.663 59.2341H204.653C204.962 60.165 205.295 61.0427 205.579 61.8142ZM202.911 53.6622C203.319 55.0717 203.788 56.6144 204.283 58.077H201.021C201.516 56.5745 202.034 55.085 202.566 53.6622H202.911ZM213.417 57.4656H214.738C216.135 57.4656 216.678 57.891 216.678 59.1542C216.678 60.3646 216.122 60.8034 214.331 60.8034C213.59 60.8034 212.528 60.697 211.897 60.4843L211.638 61.6411C212.391 61.8275 213.602 62.0001 214.492 62.0001C216.863 62.0001 218.036 61.322 218.036 59.2873C218.036 57.9575 217.654 56.9469 216.023 56.8671C217.555 56.7206 217.814 55.7897 217.814 54.6328C217.814 53.0503 216.95 52.3187 214.492 52.3187C213.503 52.3187 212.428 52.5049 211.712 52.6644L211.984 53.8218C212.54 53.6354 213.59 53.5157 214.331 53.5157C216.097 53.5157 216.492 53.8881 216.492 54.8589C216.492 55.9228 216.072 56.3351 214.726 56.3351H213.417V57.4656ZM230.988 52.5448H229.469C228.209 55.0585 226.788 57.6382 225.281 60.165V52.5448H224.046V61.8142H225.714C227.109 59.5402 228.505 56.9735 229.753 54.5265V61.8142H230.988V52.5448ZM238.615 57.4921H242.741V61.8142H243.988V52.5448H242.741V56.2554H238.615V52.5448H237.367V61.8142H238.615V57.4921Z" fill="#0A4377"/>
<path d="M162.003 34.0418V25.4356H170.439C175.227 25.4356 177.437 21.1128 177.437 16.1159C177.437 10.445 175.67 6.39966 170.402 6.39966H156.073V34.0418H162.003ZM162.003 20.1612V11.8727H168.412C170.033 11.8727 170.917 13.1018 170.917 16.1159C170.917 19.011 169.886 20.1612 168.339 20.1612H162.003Z" fill="#F8B100"/>
<path d="M150.447 29.0014H145.152L138.536 39.6378H130.597L138.139 27.7672C133.729 25.9942 131.524 22.5281 131.524 17.3684C131.524 13.9493 132.56 11.2663 134.633 9.31972C136.706 7.37294 139.55 6.39966 143.167 6.39966H150.447V12.9997H143.741C142.064 12.9997 140.756 13.4112 139.815 14.2342C138.874 15.0573 138.404 16.2603 138.404 17.843C138.404 19.2677 138.867 20.4069 139.793 21.2617C140.719 22.1165 141.991 22.5437 143.608 22.5437H150.447V29.0014Z" fill="#0A4377"/>
<path d="M10.707 39.6378L23.8441 6.39966H30.0624L43.2 39.6378H36.1497L33.3471 32.2359H20.385L17.5822 39.6378H10.707ZM22.7931 25.824H30.9384L26.8659 15.1217L22.7931 25.824Z" fill="#0A4377"/>
<path d="M85.3252 39.6374V12.7991L87.7618 6.63525H97.8496C101.47 6.63525 104.331 7.68775 106.433 9.79357C108.535 11.8994 109.586 14.6815 109.586 18.1388C109.586 21.816 108.418 24.6684 106.082 26.6956C103.747 28.723 100.784 29.7368 97.1926 29.7368H92.069V39.6374H85.3252ZM92.069 23.2775H97.4118C99.0757 23.2775 100.382 22.8061 101.331 21.863C102.28 20.9203 102.754 19.6948 102.754 18.1858C102.754 16.5829 102.273 15.349 101.309 14.4847C100.346 13.6205 99.0027 13.1885 97.2803 13.1885H92.069V23.2775Z" fill="#0A4377"/>
<path d="M195.606 22.1835C200.469 21.906 202.016 18.4559 202.016 14.4902C202.016 9.92934 200.248 6.39966 194.98 6.39966H180.651V34.0418H186.581V24.1664H189.234C190.818 24.1664 192.66 26.507 196.638 34.0418H204.042C199.253 25.3566 197.337 22.8578 195.606 22.1835ZM186.581 11.8332H193.249C194.575 11.8332 195.422 12.9829 195.422 15.4814C195.422 17.9403 194.464 18.9314 193.175 18.9314H186.581V11.8332Z" fill="#F8B100"/>
<path d="M6.79219 12.9999V39.6378H0V6.39966H17.3551L14.746 12.9999H6.79219Z" fill="#0A4377"/>
<path fill-rule="evenodd" clip-rule="evenodd" d="M164.69 37.0718H160.133H156.073V39.648H160.133H165.032H205.545V37.0718H164.69Z" fill="#F8B100"/>
<path fill-rule="evenodd" clip-rule="evenodd" d="M215.543 2.10309C214.367 0.929231 212.516 0.896815 211.304 2.07614L211.304 2.07655C210.132 3.21759 209.949 5.11209 210.813 6.48247C211.071 6.14271 211.322 5.8374 211.553 5.57746C212.697 4.29764 214.007 3.10312 215.543 2.10309Z" fill="#F8B100"/>
<path fill-rule="evenodd" clip-rule="evenodd" d="M224.606 0.0442524C228.749 -0.260659 232.204 1.03537 235.519 3.15272C236.509 3.78524 237.292 4.58834 238.098 5.32276C239.338 6.45468 241.188 8.87188 242.093 10.9963C247.764 24.3091 240.267 38.8996 226.48 39.8583C222.565 40.0557 216.769 39.9031 212.527 39.9031C211.204 39.9031 209.426 40.1112 208.344 39.4671C207.121 38.74 206.959 37.7507 206.961 35.8736V20.947C206.959 17.422 207.322 15.4112 208.348 12.4192C209.105 10.2153 210.78 7.67169 211.972 6.33778C214.828 3.14077 218.719 0.477206 224.606 0.0442524ZM223.67 32.1663C229.907 32.5952 235.011 27.9451 235.504 21.6822C236.044 14.8214 231.344 9.50602 225.714 8.9509C219.576 8.34553 214.347 13.4417 213.936 19.4982C213.809 21.3676 214.012 22.9059 214.545 24.5334C215.857 28.5438 219.609 31.8871 223.67 32.1663Z" fill="#F8B100"/>
<path fill-rule="evenodd" clip-rule="evenodd" d="M214.779 20.5921C214.779 26.5043 219.231 31.297 224.723 31.297C230.214 31.297 234.666 26.5043 234.666 20.5921C234.666 14.6796 230.214 9.88696 224.723 9.88696C219.231 9.88696 214.779 14.6796 214.779 20.5921ZM219.272 20.5921C219.272 23.8332 221.712 26.4601 224.723 26.4601C227.733 26.4601 230.173 23.8332 230.173 20.5921C230.173 17.3509 227.733 14.724 224.723 14.724C221.712 14.724 219.272 17.3509 219.272 20.5921Z" fill="#F8B100"/>
<path d="M36.3931 39.6378L49.5304 6.39966H55.7486L68.8861 39.6378H61.8359L56.6246 25.824L52.5522 15.1217L48.4792 25.824L43.2683 39.6378H36.3931Z" fill="#0A4377"/>
<path d="M73.3215 33.0376V26.4223H78.609L81.2179 19.822H73.3215V12.9999H81.2753L83.8842 6.39966H73.3215H66.5293V39.6378H73.3215H83.8842L81.2753 33.0376H73.3215Z" fill="#0A4377"/>
<path d="M118.315 33.0376V26.4223H123.602L126.211 19.822H118.315V12.9999H126.269L128.877 6.39966H118.315H111.522V39.6378H118.315H128.877L126.269 33.0376H118.315Z" fill="#0A4377"/>
</svg>
