<svg width="32" height="32" viewBox="0 0 32 32" fill="none" xmlns="http://www.w3.org/2000/svg">
<rect width="32" height="32" fill="white"/>
<g clip-path="url(#clip0)">
<path d="M5.60061 18.1089C5.60061 18.4071 5.70982 18.4964 5.93984 18.4964C6.00602 18.4964 6.09002 18.4859 6.14674 18.4691L6.12046 18.3735C6.07848 18.3882 6.00602 18.3977 5.95245 18.3977C5.78019 18.3977 5.71613 18.3557 5.71613 18.1099C5.71613 17.8631 5.78019 17.8295 5.95245 17.8295C6.00602 17.8295 6.07848 17.8389 6.12046 17.8547L6.14674 17.7591C6.09107 17.7434 6.00602 17.7318 5.93984 17.7318C5.70982 17.7318 5.60061 17.8095 5.60061 18.1089V18.1089ZM6.87296 18.4817V17.8411H7.12293V17.7497H6.51379V17.8411H6.76478V18.4817H6.87296V18.4817ZM7.67587 18.1351V17.84H7.90693C7.97518 17.84 8.01091 17.8946 8.01091 17.9933C8.01091 18.0815 7.97518 18.1351 7.90272 18.1351H7.67587V18.1351ZM7.67587 18.4817V18.2265H7.9269C8.07286 18.2265 8.12854 18.1141 8.12854 17.9944C8.12854 17.8599 8.08128 17.7497 7.92269 17.7497H7.56875V18.4817H7.67587ZM8.90834 17.7318C8.67834 17.7318 8.56806 17.8127 8.56806 18.1109C8.56806 18.4124 8.67834 18.4964 8.90834 18.4964C9.13939 18.4964 9.24864 18.4124 9.24864 18.1109C9.24864 17.8127 9.13834 17.7318 8.90834 17.7318ZM8.90834 18.4008C8.73506 18.4008 8.68358 18.3504 8.68358 18.1131C8.68358 17.8673 8.73506 17.8263 8.90834 17.8263C9.08269 17.8263 9.13518 17.8673 9.13518 18.1131C9.13518 18.3504 9.08269 18.4008 8.90834 18.4008ZM10.3424 17.7497H10.2133C10.1061 17.9482 9.98536 18.1519 9.85722 18.3515V17.7497H9.75218V18.4817H9.89398C10.0127 18.3021 10.1313 18.0994 10.2374 17.9062V18.4817H10.3424V17.7497V17.7497ZM11.1485 18.4817V17.8411H11.3984V17.7497H10.7893V17.8411H11.0403V18.4817H11.1485ZM11.8453 17.7497V18.4817H12.361V18.3903H11.9514V18.1393H12.2423V18.049H11.9514V17.8411H12.361V17.7497H11.8453V17.7497ZM13.2867 17.8411V18.4817H13.3928V17.7497H12.9202C12.9087 18.0164 12.8436 18.2643 12.7721 18.4817H12.8866C12.957 18.28 13.0053 18.0364 13.0189 17.8411H13.2867ZM14.0403 18.3924V18.1235H14.2913C14.3564 18.1235 14.3859 18.1761 14.3859 18.2601C14.3859 18.342 14.3617 18.3924 14.2955 18.3924H14.0403V18.3924ZM13.9332 17.7497V18.4817H14.3155C14.4394 18.4817 14.5014 18.4029 14.5014 18.2611C14.5014 18.1309 14.4562 18.0343 14.306 18.0343H14.0403V17.7497H13.9332V17.7497ZM15.0911 18.1404H15.4419V18.4817H15.5479V17.7497H15.4419V18.0427H15.0911V17.7497H14.985V18.4817H15.0911V18.1404V18.1404ZM16.1954 18.3924V18.1235H16.4464C16.5115 18.1235 16.5409 18.1761 16.5409 18.2601C16.5409 18.342 16.5167 18.3924 16.4506 18.3924H16.1954V18.3924ZM16.0883 17.7497V18.4817H16.4705C16.5945 18.4817 16.6564 18.4029 16.6564 18.2611C16.6564 18.1309 16.6113 18.0343 16.4611 18.0343H16.1954V17.7497H16.0883V17.7497ZM16.7299 17.7497V18.4817H16.8371V17.7497H16.7299ZM17.9698 17.7497H17.8406C17.7335 17.9482 17.6127 18.1519 17.4846 18.3515V17.7497H17.3795V18.4817H17.5213C17.64 18.3021 17.7587 18.0994 17.8647 17.9062V18.4817H17.9698V17.7497V17.7497ZM17.5287 17.5669C17.5287 17.6625 17.5812 17.7055 17.6768 17.7055C17.7744 17.7055 17.8248 17.6625 17.8248 17.5669H17.7555C17.7555 17.6215 17.7282 17.6331 17.6789 17.6331C17.6274 17.6331 17.6022 17.6215 17.6022 17.5669H17.5287ZM19.8238 18.259C19.7586 18.091 19.6799 17.9125 19.6022 17.7497H19.4509V18.4817H19.5538V17.8852C19.6295 18.05 19.7082 18.2412 19.7754 18.4082H19.8574C19.9256 18.2433 20.0065 18.0542 20.0842 17.8852V18.4817H20.1892V17.7497H20.0464C19.9676 17.9114 19.8889 18.0899 19.8238 18.259ZM21.2263 18.4817H21.3461C21.261 18.2832 21.1549 17.9912 21.0762 17.7497H20.9029C20.8073 17.9818 20.7086 18.2506 20.6319 18.4817H20.7422C20.7632 18.4155 20.7852 18.3472 20.8083 18.2779H21.1476C21.1738 18.3515 21.2022 18.4208 21.2263 18.4817ZM20.9995 17.8379C21.0342 17.9492 21.0741 18.0711 21.1161 18.1866H20.8388C20.8808 18.0679 20.9249 17.9503 20.9701 17.8379H20.9995ZM21.8885 18.4817V17.8411H22.2561V17.7497H21.7824V18.4817H21.8885ZM23.079 18.4817H23.1987C23.1136 18.2832 23.0075 17.9912 22.9288 17.7497H22.7555C22.6599 17.9818 22.5612 18.2506 22.4845 18.4817H22.5948C22.6158 18.4155 22.6378 18.3472 22.661 18.2779H23.0002C23.0264 18.3515 23.0548 18.4208 23.079 18.4817ZM22.8521 17.8379C22.8868 17.9492 22.9267 18.0711 22.9687 18.1866H22.6914C22.7334 18.0679 22.7775 17.9503 22.8227 17.8379H22.8521ZM23.7453 18.1383H23.8577C23.9764 18.1383 24.0226 18.1719 24.0226 18.2716C24.0226 18.3672 23.9753 18.4019 23.823 18.4019C23.76 18.4019 23.6697 18.3935 23.6161 18.3767L23.5941 18.468C23.6581 18.4827 23.7611 18.4964 23.8367 18.4964C24.0383 18.4964 24.1381 18.4428 24.1381 18.2821C24.1381 18.1771 24.1056 18.0973 23.9669 18.091C24.0971 18.0794 24.1192 18.0059 24.1192 17.9146C24.1192 17.7896 24.0457 17.7318 23.8367 17.7318C23.7527 17.7318 23.6613 17.7465 23.6004 17.7591L23.6235 17.8505C23.6707 17.8358 23.76 17.8263 23.823 17.8263C23.9732 17.8263 24.0068 17.8557 24.0068 17.9324C24.0068 18.0164 23.9711 18.049 23.8566 18.049H23.7453V18.1383V18.1383ZM25.2393 17.7497H25.1101C25.003 17.9482 24.8822 18.1519 24.7541 18.3515V17.7497H24.649V18.4817H24.7908C24.9095 18.3021 25.0282 18.0994 25.1343 17.9062V18.4817H25.2393V17.7497V17.7497ZM25.8878 18.1404H26.2386V18.4817H26.3447V17.7497H26.2386V18.0427H25.8878V17.7497H25.7817V18.4817H25.8878V18.1404Z" fill="#0A4377"/>
<path d="M19.3743 16.2884V15.6087H20.0915C20.4986 15.6087 20.6865 15.2673 20.6865 14.8727C20.6865 14.4249 20.5362 14.1054 20.0883 14.1054H18.87V16.2884H19.3743ZM19.3743 15.1922V14.5376H19.9192C20.057 14.5376 20.1321 14.6347 20.1321 14.8727C20.1321 15.1014 20.0445 15.1922 19.9129 15.1922H19.3743Z" fill="#F8B100"/>
<path d="M18.3917 15.8903H17.9415L17.379 16.7303H16.704L17.3452 15.7929C16.9702 15.6528 16.7827 15.3791 16.7827 14.9716C16.7827 14.7016 16.8708 14.4897 17.0471 14.336C17.2233 14.1823 17.4652 14.1054 17.7727 14.1054H18.3917V14.6266H17.8215C17.6789 14.6266 17.5677 14.6591 17.4877 14.7241C17.4077 14.7891 17.3677 14.8841 17.3677 15.0091C17.3677 15.1216 17.4071 15.2116 17.4858 15.2791C17.5646 15.3466 17.6727 15.3804 17.8102 15.3804H18.3917V15.8903V15.8903Z" fill="#0A4377"/>
<path d="M6.51036 16.7303L7.62734 14.1054H8.15604L9.27306 16.7303H8.67361L8.43532 16.1458H7.33322L7.09492 16.7303H6.51036V16.7303ZM7.53798 15.6394H8.23052L7.88426 14.7942L7.53798 15.6394V15.6394Z" fill="#0A4377"/>
<path d="M12.8547 16.7303V14.6108L13.0619 14.124H13.9196C14.2274 14.124 14.4707 14.2072 14.6494 14.3735C14.8281 14.5398 14.9175 14.7595 14.9175 15.0325C14.9175 15.3229 14.8182 15.5482 14.6196 15.7083C14.421 15.8684 14.1691 15.9485 13.8638 15.9485H13.4281V16.7303H12.8547V16.7303ZM13.4281 15.4383H13.8824C14.0239 15.4383 14.135 15.4011 14.2156 15.3266C14.2963 15.2522 14.3367 15.1554 14.3367 15.0362C14.3367 14.9096 14.2957 14.8122 14.2138 14.7439C14.1319 14.6757 14.0177 14.6416 13.8712 14.6416H13.4281V15.4383Z" fill="#0A4377"/>
<path d="M22.2313 15.3519C22.6448 15.33 22.7763 15.0575 22.7763 14.7443C22.7763 14.3841 22.626 14.1054 22.1781 14.1054H20.9598V16.2884H21.464V15.5085H21.6895C21.8242 15.5085 21.9808 15.6933 22.3191 16.2884H22.9486C22.5414 15.6025 22.3785 15.4052 22.2313 15.3519V15.3519ZM21.464 14.5345H22.0309C22.1437 14.5345 22.2157 14.6253 22.2157 14.8226C22.2157 15.0168 22.1342 15.0951 22.0246 15.0951H21.464V14.5345V14.5345Z" fill="#F8B100"/>
<path d="M6.1775 14.6266V16.7303H5.6V14.1054H7.07561L6.85377 14.6266H6.1775Z" fill="#0A4377"/>
<path fill-rule="evenodd" clip-rule="evenodd" d="M19.6026 16.5277H19.2153H18.87V16.7312H19.2153H19.6318H23.0764V16.5277H19.6026Z" fill="#F8B100"/>
<path fill-rule="evenodd" clip-rule="evenodd" d="M23.9265 13.7661C23.8264 13.6734 23.6691 13.6708 23.566 13.7639L23.566 13.764C23.4664 13.8541 23.4508 14.0037 23.5243 14.1119C23.5462 14.0851 23.5675 14.061 23.5872 14.0405C23.6844 13.9394 23.7958 13.8451 23.9265 13.7661V13.7661Z" fill="#F8B100"/>
<path fill-rule="evenodd" clip-rule="evenodd" d="M24.697 13.6035C25.0493 13.5794 25.343 13.6818 25.6249 13.849C25.709 13.8989 25.7757 13.9624 25.8442 14.0204C25.9496 14.1098 26.1069 14.3007 26.1839 14.4684C26.666 15.5198 26.0286 16.6721 24.8564 16.7478C24.5235 16.7634 24.0307 16.7513 23.67 16.7513C23.5576 16.7513 23.4064 16.7677 23.3143 16.7169C23.2104 16.6595 23.1966 16.5813 23.1968 16.4331V15.2543C23.1966 14.9759 23.2275 14.8171 23.3147 14.5808C23.379 14.4067 23.5215 14.2059 23.6228 14.1005C23.8656 13.848 24.1965 13.6377 24.697 13.6035V13.6035ZM24.6175 16.1403C25.1478 16.1742 25.5817 15.8069 25.6236 15.3123C25.6695 14.7705 25.2699 14.3507 24.7912 14.3069C24.2694 14.2591 23.8248 14.6615 23.7898 15.1399C23.7791 15.2875 23.7963 15.409 23.8416 15.5375C23.9532 15.8542 24.2722 16.1183 24.6175 16.1403V16.1403Z" fill="#F8B100"/>
<path fill-rule="evenodd" clip-rule="evenodd" d="M23.8615 15.2263C23.8615 15.6932 24.24 16.0717 24.7069 16.0717C25.1739 16.0717 25.5524 15.6932 25.5524 15.2263C25.5524 14.7593 25.1739 14.3808 24.7069 14.3808C24.24 14.3808 23.8615 14.7593 23.8615 15.2263V15.2263ZM24.2435 15.2263C24.2435 15.4822 24.451 15.6897 24.7069 15.6897C24.9629 15.6897 25.1704 15.4822 25.1704 15.2263C25.1704 14.9703 24.9629 14.7628 24.7069 14.7628C24.451 14.7628 24.2435 14.9703 24.2435 15.2263Z" fill="#F8B100"/>
<path d="M8.6943 16.7303L9.81129 14.1054H10.34L11.457 16.7303H10.8576L10.4145 15.6394L10.0682 14.7942L9.72191 15.6394L9.27886 16.7303H8.6943Z" fill="#0A4377"/>
<path d="M11.8341 16.2091V15.6867H12.2837L12.5055 15.1654H11.8341V14.6266H12.5104L12.7322 14.1054H11.8341H11.2566V16.7303H11.8341H12.7322L12.5104 16.2091H11.8341Z" fill="#0A4377"/>
<path d="M15.6596 16.2091V15.6867H16.1092L16.3311 15.1654H15.6596V14.6266H16.3359L16.5577 14.1054H15.6596H15.0821V16.7303H15.6596H16.5577L16.3359 16.2091H15.6596Z" fill="#0A4377"/>
</g>
<defs>
<clipPath id="clip0">
<rect width="20.7461" height="4.89637" fill="white" transform="translate(5.6 13.6)"/>
</clipPath>
</defs>
</svg>
