<svg width="43" height="43" viewBox="0 0 43 43" fill="none" xmlns="http://www.w3.org/2000/svg">
<path d="M40.5143 31.814C39.8473 30.7254 38.812 29.4575 37.5959 28.243C36.7156 27.3628 33.6938 24.4928 31.7509 24.4928C31.1275 24.4928 30.7318 24.7593 30.5105 24.9805L27.9231 27.5663C27.8795 27.6099 27.7406 27.66 27.4903 27.66C26.0545 27.66 23.01 26.0707 19.9688 23.0311C15.9134 18.974 14.9379 15.5727 15.4337 15.0768L18.0178 12.4911C18.2407 12.2682 18.5072 11.8725 18.5072 11.2507C18.5088 9.30614 15.6372 6.28432 14.757 5.40409C13.8784 4.52387 10.8581 1.65387 8.91197 1.65387C8.29017 1.65387 7.89447 1.91874 7.67159 2.14163L2.49847 7.31474C0.970605 8.84099 1.52781 11.8273 4.15555 16.1896C6.43605 19.9754 10.0458 24.4136 14.316 28.6839C21.8908 36.2587 29.5608 41.3478 33.4015 41.3462C34.3576 41.3462 35.1248 41.0619 35.6852 40.5015L40.8583 35.3284C41.9776 34.2091 40.8761 32.4067 40.5143 31.814ZM33.9312 38.7475C33.8731 38.804 33.7051 38.8654 33.4015 38.8654C30.7867 38.8654 23.824 34.6823 16.07 26.9299C11.937 22.7969 8.46137 18.5283 6.281 14.9089C3.82446 10.8324 4.05542 9.26576 4.25246 9.06872L9.12193 4.19924C9.75666 4.44473 11.228 5.38148 13.003 7.15808C14.778 8.93467 15.7163 10.4044 15.9618 11.0391L13.6797 13.3229C11.3007 15.7019 14.3629 20.9315 18.2149 24.7851C21.5193 28.0896 25.0741 30.1407 27.4903 30.1407C28.6192 30.1407 29.3024 29.695 29.6771 29.3203L31.9608 27.0381C32.5956 27.2836 34.0653 28.222 35.8419 29.997C37.6169 31.772 38.5552 33.2433 38.8007 33.878L33.9312 38.7475Z" fill="#0A4377"/>
</svg>
