<svg width="43" height="43" viewBox="0 0 43 43" fill="none" xmlns="http://www.w3.org/2000/svg">
<g clip-path="url(#clip0)">
<path fill-rule="evenodd" clip-rule="evenodd" d="M21.9015 0.000305176C10.2644 0.000305176 0.831002 9.37809 0.831002 20.947C0.831002 24.9041 1.93573 28.605 3.85437 31.7623L0.0517578 43.0003L11.7173 39.287C14.7357 40.9467 18.2072 41.8925 21.9015 41.8925C33.5378 41.8925 42.9712 32.5151 42.9712 20.9471C42.9714 9.37809 33.538 0.000305176 21.9015 0.000305176ZM21.9015 38.5565C18.3031 38.5565 14.9527 37.4835 12.1554 35.6441L5.34787 37.8114L7.56035 31.2713C5.43979 28.3681 4.18682 24.8007 4.18682 20.9464C4.18682 11.2359 12.1335 3.3359 21.9015 3.3359C31.6689 3.3359 39.6158 11.2359 39.6158 20.9464C39.6158 30.6566 31.6691 38.5565 21.9015 38.5565ZM16.9597 12.2826C16.6184 11.4649 16.3569 11.4372 15.8297 11.4123C15.6489 11.4036 15.4528 11.3954 15.2383 11.3954C14.559 11.3954 13.8548 11.5943 13.4304 12.0259C12.9139 12.5511 11.6225 13.7814 11.6225 16.3075C11.6225 18.834 13.4733 21.2752 13.7312 21.6179C13.9898 21.9602 17.3409 27.2204 22.5547 29.3681C26.6242 31.0438 27.8326 30.8946 28.761 30.6927C30.1119 30.3995 31.8083 29.4104 32.2387 28.2119C32.6691 27.0127 32.6691 25.9849 32.5401 25.7714C32.4108 25.557 32.0665 25.4291 31.55 25.1716C31.0336 24.9149 28.4939 23.6729 28.0206 23.5019C27.547 23.3307 27.1093 23.383 26.7452 23.8835C26.2426 24.575 25.7593 25.2857 25.359 25.707C25.0448 26.0377 24.5393 26.0838 24.1046 25.9001C23.5329 25.658 21.9237 25.1005 19.9507 23.3519C18.4155 21.9913 17.3788 20.3105 17.0774 19.7963C16.776 19.2828 17.0509 18.9763 17.2831 18.6969C17.5479 18.378 17.7922 18.149 18.0505 17.8496C18.3087 17.5496 18.453 17.3898 18.6252 17.0468C18.7973 16.7045 18.6815 16.3511 18.5523 16.094C18.4229 15.8369 17.3888 13.3112 16.9597 12.2826Z" fill="#0A4377"/>
</g>
<defs>
<clipPath id="clip0">
<rect width="43" height="43" fill="white"/>
</clipPath>
</defs>
</svg>
