<svg width="49" height="48" viewBox="0 0 49 48" fill="none" xmlns="http://www.w3.org/2000/svg">
<path d="M46.994 36.4727C46.1874 35.1563 44.9355 33.623 43.4648 32.1543C42.4003 31.0899 38.746 27.6192 36.3964 27.6192C35.6426 27.6192 35.164 27.9415 34.8964 28.209L31.7675 31.336C31.7148 31.3887 31.5468 31.4493 31.2441 31.4493C29.5078 31.4493 25.8261 29.5274 22.1483 25.8516C17.2441 20.9453 16.0644 16.8321 16.664 16.2324L19.789 13.1055C20.0585 12.836 20.3808 12.3574 20.3808 11.6055C20.3827 9.25394 16.9101 5.59964 15.8457 4.53518C14.7832 3.47073 11.1307 2.90871e-05 8.77727 2.90871e-05C8.02533 2.90871e-05 7.54681 0.320337 7.27728 0.589878L1.02141 6.84573C-0.826238 8.69143 -0.152409 12.3028 3.02532 17.5781C5.78314 22.1563 10.1484 27.5234 15.3124 32.6875C24.4726 41.8477 33.748 48.002 38.3925 48C39.5487 48 40.4765 47.6562 41.1542 46.9786L47.41 40.7227C48.7636 39.3691 47.4316 37.1895 46.994 36.4727ZM39.0331 44.8574C38.9628 44.9258 38.7597 45 38.3925 45C35.2304 45 26.8104 39.9414 17.4335 30.5664C12.4354 25.5683 8.23236 20.4063 5.59564 16.0294C2.62494 11.0996 2.90424 9.2051 3.14252 8.96682L9.03118 3.07815C9.79876 3.37502 11.5781 4.50784 13.7246 6.65628C15.8711 8.80472 17.0058 10.5821 17.3026 11.3496L14.5429 14.1114C11.666 16.9883 15.3691 23.3125 20.0273 27.9727C24.0233 31.9688 28.3222 34.4492 31.2441 34.4492C32.6093 34.4492 33.4355 33.9102 33.8886 33.4571L36.6503 30.6972C37.4179 30.9941 39.1953 32.1289 41.3437 34.2754C43.4902 36.4219 44.6249 38.2012 44.9218 38.9687L39.0331 44.8574Z" fill="#F8B100"/>
</svg>
