<svg width="52" height="52" viewBox="0 0 52 52" fill="none" xmlns="http://www.w3.org/2000/svg">
<path d="M52 25.3067C52 39.2889 40.56 50.6133 26.4622 50.6133C22.0133 50.6133 17.7956 49.4578 14.0978 47.4356L0 52L4.62222 38.4222C2.31111 34.6089 0.982222 30.1022 0.982222 25.3644C0.924445 11.3244 12.3644 0 26.4622 0C40.56 0 52 11.3244 52 25.3067ZM26.4622 4.04444C14.6178 4.04444 5.02667 13.5778 5.02667 25.3067C5.02667 29.9867 6.52889 34.2622 9.12889 37.7867L6.47111 45.7022L14.7333 43.1022C18.1422 45.3556 22.1867 46.6267 26.52 46.6267C38.3067 46.6267 47.9556 37.0933 47.9556 25.3067C47.9556 13.52 38.3067 4.04444 26.4622 4.04444ZM39.3467 31.1422C39.1733 30.9111 38.7689 30.7378 38.1333 30.3911C37.4978 30.1022 34.4356 28.6 33.8578 28.3689C33.28 28.1378 32.8756 28.08 32.4711 28.6578C32.0667 29.2933 30.8533 30.68 30.5067 31.0844C30.16 31.4889 29.7556 31.5467 29.1778 31.2578C28.5422 30.9689 26.52 30.2756 24.1511 28.1956C22.3022 26.5778 21.0311 24.4978 20.6844 23.92C20.3378 23.2844 20.6267 22.9378 20.9733 22.6489C21.2622 22.36 21.6089 21.8978 21.8978 21.5511C22.1867 21.2044 22.3022 20.9156 22.5333 20.5111C22.7644 20.1067 22.6489 19.76 22.4756 19.4133C22.3022 19.1244 21.0889 16.0622 20.5689 14.7911C20.0489 13.5778 19.5289 13.7511 19.1822 13.7511C18.8356 13.7511 18.3733 13.6933 17.9689 13.6933C17.5644 13.6933 16.8711 13.8667 16.2933 14.4444C15.7156 15.08 14.0978 16.5822 14.0978 19.6444C14.0978 22.7067 16.3511 25.6533 16.64 26.0578C16.9289 26.4622 20.9733 32.9333 27.3289 35.4178C33.6844 37.9022 33.6844 37.0933 34.84 36.9778C35.9956 36.8622 38.5378 35.4756 39.0578 34.0311C39.52 32.6444 39.52 31.4311 39.3467 31.1422Z" fill="#F8B100"/>
</svg>
