<svg width="42" height="41" viewBox="0 0 42 41" fill="none" xmlns="http://www.w3.org/2000/svg">
<path d="M33.5727 10.1035C33.5727 10.411 33.512 10.7156 33.3944 10.9998C33.2768 11.284 33.1041 11.5422 32.8868 11.7597C32.6692 11.9772 32.411 12.1497 32.1267 12.2674C31.8426 12.3851 31.5381 12.4457 31.2305 12.4457C30.9229 12.4457 30.6184 12.3851 30.3341 12.2674C30.05 12.1497 29.7918 11.9772 29.5743 11.7597C29.3567 11.5422 29.1842 11.284 29.0666 10.9998C28.9487 10.7156 28.8883 10.411 28.8883 10.1035C28.8883 9.48226 29.1349 8.88651 29.5743 8.44725C30.0136 8.00799 30.6093 7.76122 31.2305 7.76122C31.8517 7.76122 32.4474 8.00799 32.8868 8.44725C33.3259 8.88651 33.5727 9.48226 33.5727 10.1035ZM41.0092 20.6764V20.7068L40.8752 29.1955C40.841 32.2568 39.6097 35.1834 37.445 37.3483C35.2806 39.5135 32.3543 40.7453 29.293 40.7802L20.7739 40.9117H20.7435L12.2548 40.7777C9.1934 40.7435 6.26697 39.5122 4.10187 37.3478C1.93674 35.1831 0.704946 32.2568 0.670104 29.1955L0.538574 20.6764V20.646L0.672633 12.1573C0.706805 9.09592 1.93796 6.16949 4.1026 4.00439C6.26725 1.83926 9.1934 0.607465 12.2548 0.572635L20.7739 0.441101H20.8042L29.293 0.575165C32.3543 0.609337 35.2809 1.84048 37.4458 4.00512C39.611 6.16977 40.8428 9.09592 40.8777 12.1573L41.0092 20.6764ZM37.2404 20.6764L37.1089 12.2155C37.0851 10.1345 36.2479 8.14544 34.7765 6.67385C33.3049 5.20229 31.3158 4.36511 29.2348 4.34146L20.7739 4.20993L12.313 4.34146C10.232 4.36511 8.24292 5.20229 6.77133 6.67385C5.29977 8.14544 4.46259 10.1345 4.43894 12.2155L4.30741 20.6764L4.43894 29.1373C4.46259 31.2183 5.29977 33.2074 6.77133 34.679C8.24292 36.1506 10.232 36.9876 12.313 37.0114L20.7739 37.1429L29.2348 37.0114C31.3158 36.9876 33.3049 36.1506 34.7765 34.679C36.2479 33.2074 37.0851 31.2183 37.1089 29.1373L37.2404 20.6764ZM31.1647 20.6764C31.1647 23.4322 30.07 26.0752 28.1214 28.0239C26.1727 29.9725 23.5297 31.0672 20.7739 31.0672C18.0181 31.0672 15.3751 29.9725 13.4264 28.0239C11.4778 26.0752 10.3831 23.4322 10.3831 20.6764C10.3831 17.9206 11.4778 15.2776 13.4264 13.329C15.3751 11.3803 18.0181 10.2856 20.7739 10.2856C23.5297 10.2856 26.1727 11.3803 28.1214 13.329C30.07 15.2776 31.1647 17.9206 31.1647 20.6764ZM27.3959 20.6764C27.3959 18.9201 26.6983 17.2358 25.4564 15.9939C24.2145 14.7521 22.5301 14.0544 20.7739 14.0544C19.0176 14.0544 17.3333 14.7521 16.0914 15.9939C14.8495 17.2358 14.1519 18.9201 14.1519 20.6764C14.1519 22.4326 14.8495 24.1169 16.0914 25.3589C17.3333 26.6008 19.0176 27.2984 20.7739 27.2984C22.5301 27.2984 24.2145 26.6008 25.4564 25.3589C26.6983 24.1169 27.3959 22.4326 27.3959 20.6764Z" fill="#0A4377"/>
</svg>
