<svg width="52" height="52" viewBox="0 0 52 52" fill="none" xmlns="http://www.w3.org/2000/svg">
<path d="M41.5662 12.8142C41.5662 13.2042 41.4911 13.5905 41.3455 13.951C41.1999 14.3114 40.986 14.6389 40.717 14.9147C40.4476 15.1906 40.1279 15.4094 39.7759 15.5587C39.4242 15.7079 39.0472 15.7848 38.6663 15.7848C38.2855 15.7848 37.9085 15.7079 37.5565 15.5587C37.2048 15.4094 36.8851 15.1906 36.6158 14.9147C36.3464 14.6389 36.1328 14.3114 35.9872 13.951C35.8413 13.5905 35.7665 13.2042 35.7665 12.8142C35.7665 12.0263 36.0718 11.2707 36.6158 10.7136C37.1597 10.1565 37.8972 9.8435 38.6663 9.8435C39.4354 9.8435 40.173 10.1565 40.717 10.7136C41.2606 11.2707 41.5662 12.0263 41.5662 12.8142ZM50.7733 26.2237V26.2623L50.6074 37.0284C50.5651 40.9111 49.0406 44.6229 46.3605 47.3686C43.6807 50.1147 40.0577 51.677 36.2675 51.7212L25.7201 51.888H25.6824L15.1726 51.7181C11.3823 51.6747 7.75911 50.113 5.07851 47.3679C2.39787 44.6225 0.872794 40.9111 0.829656 37.0284L0.666809 26.2237V26.1852L0.832787 15.419C0.875095 11.5363 2.39938 7.82472 5.07941 5.07874C7.75946 2.33272 11.3823 0.770446 15.1726 0.726272L25.7201 0.559448H25.7576L36.2675 0.729481C40.0577 0.772821 43.6811 2.33427 46.3615 5.07967C49.0422 7.82508 50.5673 11.5363 50.6105 15.419L50.7733 26.2237ZM46.1072 26.2237L45.9444 15.4928C45.9149 12.8535 44.8784 10.3308 43.0566 8.4644C41.2346 6.59803 38.7719 5.53624 36.1955 5.50625L25.7201 5.33943L15.2447 5.50625C12.6682 5.53624 10.2055 6.59803 8.38355 8.4644C6.56162 10.3308 5.52511 12.8535 5.49583 15.4928L5.33299 26.2237L5.49583 36.9546C5.52511 39.5939 6.56162 42.1167 8.38355 43.9831C10.2055 45.8495 12.6682 46.9111 15.2447 46.9413L25.7201 47.1081L36.1955 46.9413C38.7719 46.9111 41.2346 45.8495 43.0566 43.9831C44.8784 42.1167 45.9149 39.5939 45.9444 36.9546L46.1072 26.2237ZM38.5849 26.2237C38.5849 29.7189 37.2295 33.071 34.817 35.5425C32.4043 38.0139 29.132 39.4023 25.7201 39.4023C22.3081 39.4023 19.0358 38.0139 16.6232 35.5425C14.2106 33.071 12.8553 29.7189 12.8553 26.2237C12.8553 22.7286 14.2106 19.3765 16.6232 16.9051C19.0358 14.4336 22.3081 13.0452 25.7201 13.0452C29.132 13.0452 32.4043 14.4336 34.817 16.9051C37.2295 19.3765 38.5849 22.7286 38.5849 26.2237ZM33.9187 26.2237C33.9187 23.9962 33.055 21.86 31.5175 20.2849C29.9799 18.71 27.8944 17.8251 25.7201 17.8251C23.5456 17.8251 21.4603 18.71 19.9227 20.2849C18.3851 21.86 17.5214 23.9962 17.5214 26.2237C17.5214 28.4511 18.3851 30.5873 19.9227 32.1625C21.4603 33.7376 23.5456 34.6224 25.7201 34.6224C27.8944 34.6224 29.9799 33.7376 31.5175 32.1625C33.055 30.5873 33.9187 28.4511 33.9187 26.2237Z" fill="#F8B100"/>
</svg>
