<svg width="68" height="67" viewBox="0 0 68 67" fill="none" xmlns="http://www.w3.org/2000/svg">
<g clip-path="url(#clip0)">
<path d="M20.9395 13.428C20.3515 13.428 19.8747 13.8977 19.8747 14.4771C19.8747 15.7497 18.8239 16.7851 17.5323 16.7851C16.2407 16.7851 15.1899 15.7497 15.1899 14.4771C15.1899 13.2045 16.2407 12.1691 17.5323 12.1691C18.1202 12.1691 18.597 11.6995 18.597 11.12C18.597 10.5406 18.1204 10.0709 17.5323 10.0709C15.0665 10.0709 13.0605 12.0476 13.0605 14.477C13.0605 16.9064 15.0666 18.883 17.5323 18.883C19.9979 18.883 22.0041 16.9064 22.0041 14.477C22.0042 13.8977 21.5274 13.428 20.9395 13.428Z" fill="#F8B100"/>
<path d="M20.9395 25.7369C20.3515 25.7369 19.8747 26.2066 19.8747 26.786C19.8747 28.0586 18.8239 29.094 17.5323 29.094C16.2407 29.094 15.1899 28.0586 15.1899 26.786C15.1899 25.5134 16.2407 24.478 17.5323 24.478C18.1202 24.478 18.597 24.0084 18.597 23.4289C18.597 22.8495 18.1204 22.3798 17.5323 22.3798C15.0665 22.3798 13.0605 24.3565 13.0605 26.7859C13.0605 29.2153 15.0666 31.1919 17.5323 31.1919C19.9979 31.1919 22.0041 29.2153 22.0041 26.7859C22.0042 26.2067 21.5274 25.7369 20.9395 25.7369Z" fill="#F8B100"/>
<path d="M33.4321 27.975H25.4822C24.8942 27.975 24.4174 28.4446 24.4174 29.0241C24.4174 29.6035 24.8941 30.0732 25.4822 30.0732H33.4321C34.02 30.0732 34.4968 29.6035 34.4968 29.0241C34.4968 28.4446 34.0202 27.975 33.4321 27.975Z" fill="#F8B100"/>
<path d="M33.4321 23.4989H25.4822C24.8942 23.4989 24.4174 23.9686 24.4174 24.548C24.4174 25.1275 24.8941 25.5971 25.4822 25.5971H33.4321C34.02 25.5971 34.4968 25.1275 34.4968 24.548C34.4968 23.9686 34.0202 23.4989 33.4321 23.4989Z" fill="#F8B100"/>
<path d="M31.1607 40.2839H25.4822C24.8942 40.2839 24.4174 40.7535 24.4174 41.333C24.4174 41.9124 24.8941 42.3821 25.4822 42.3821H31.1607C31.7487 42.3821 32.2255 41.9124 32.2255 41.333C32.2255 40.7535 31.7487 40.2839 31.1607 40.2839Z" fill="#F8B100"/>
<path d="M33.4321 35.808H25.4822C24.8942 35.808 24.4174 36.2776 24.4174 36.8571C24.4174 37.4365 24.8941 37.9062 25.4822 37.9062H33.4321C34.02 37.9062 34.4968 37.4365 34.4968 36.8571C34.4968 36.2776 34.0202 35.808 33.4321 35.808Z" fill="#F8B100"/>
<path d="M43.6535 15.666H25.4822C24.8942 15.666 24.4174 16.1356 24.4174 16.7151C24.4174 17.2945 24.8941 17.7642 25.4822 17.7642H43.6533C44.2413 17.7642 44.7181 17.2945 44.7181 16.7151C44.7181 16.1356 44.2414 15.666 43.6535 15.666Z" fill="#F8B100"/>
<path d="M39.1106 11.1899H25.4822C24.8942 11.1899 24.4174 11.6596 24.4174 12.239C24.4174 12.8185 24.8941 13.2881 25.4822 13.2881H39.1106C39.6986 13.2881 40.1754 12.8185 40.1754 12.239C40.1754 11.6596 39.6987 11.1899 39.1106 11.1899Z" fill="#F8B100"/>
<path d="M20.9395 38.0459C20.3515 38.0459 19.8747 38.5156 19.8747 39.095C19.8747 40.3676 18.8239 41.403 17.5323 41.403C16.2407 41.403 15.1899 40.3676 15.1899 39.095C15.1899 37.8224 16.2407 36.7871 17.5323 36.7871C18.1202 36.7871 18.597 36.3174 18.597 35.738C18.597 35.1585 18.1204 34.6889 17.5323 34.6889C15.0665 34.6889 13.0605 36.6655 13.0605 39.0949C13.0605 41.5243 15.0666 43.5009 17.5323 43.5009C19.9979 43.5009 22.0041 41.5243 22.0041 39.0949C22.0042 38.5156 21.5274 38.0459 20.9395 38.0459Z" fill="#F8B100"/>
<path d="M48.1962 0H9.58239C7.74294 0 6.24628 1.47452 6.24628 3.28706V50.2849C6.24628 52.0975 7.74281 53.572 9.58239 53.572H28.8893C29.4773 53.572 29.9541 53.1023 29.9541 52.5229C29.9541 51.9436 29.4774 51.4738 28.8893 51.4738H9.58239C8.917 51.4738 8.37566 50.9404 8.37566 50.2848V3.28706C8.37566 2.63145 8.917 2.09807 9.58239 2.09807H48.1962C48.8616 2.09807 49.4029 2.63145 49.4029 3.28706V37.9762C49.4029 38.5555 49.8796 39.0253 50.4677 39.0253C51.0556 39.0253 51.5324 38.5556 51.5324 37.9762V3.28706C51.5323 1.47452 50.0358 0 48.1962 0Z" fill="#F8B100"/>
<path d="M58.2487 42.5416C57.2591 42.4444 56.27 42.7208 55.4872 43.3064C54.8637 42.2754 53.8004 41.5441 52.5701 41.4226C51.5803 41.3255 50.5914 41.6019 49.8087 42.1874C49.1851 41.1565 48.1218 40.4251 46.8916 40.3037C46.1359 40.2293 45.3813 40.3727 44.7181 40.7053V27.3456C44.7181 26.2609 44.2498 25.2211 43.4329 24.4928C42.6168 23.7652 41.5169 23.4101 40.4153 23.5187C38.4498 23.7126 36.9102 25.4637 36.9102 27.5052V40.8987L33.7804 43.9825C32.1171 45.6213 31.4458 47.9464 31.9846 50.2024L34.3607 60.1525C35.3235 64.1845 38.9319 67.0003 43.1357 67.0003H52.7389C57.7096 67.0003 61.7536 63.0159 61.7536 58.1182V46.5284C61.7537 44.4866 60.2142 42.7355 58.2487 42.5416ZM59.6242 58.1179C59.6242 61.8586 56.5355 64.9018 52.7391 64.9018H43.1358C39.9251 64.9018 37.1689 62.7512 36.4335 59.6716L34.0574 49.7215C33.6887 48.178 34.1481 46.587 35.2861 45.4658L36.9102 43.8655V47.4874C36.9102 48.0668 37.3869 48.5365 37.975 48.5365C38.5631 48.5365 39.0397 48.0669 39.0397 47.4874V27.5051C39.0397 26.5282 39.7371 25.6941 40.6276 25.6064C41.1391 25.5558 41.6282 25.7131 42.0044 26.0486C42.3758 26.3798 42.5889 26.8526 42.5889 27.3457V45.8092C42.5889 46.3885 43.0655 46.8583 43.6536 46.8583C44.2417 46.8583 44.7184 46.3886 44.7184 45.8092V44.1306C44.7184 43.6376 44.9313 43.1648 45.3029 42.8336C45.6793 42.498 46.1682 42.3406 46.6796 42.3914C47.57 42.4792 48.2675 43.3133 48.2675 44.2902V46.9279C48.2675 47.5072 48.7442 47.977 49.3323 47.977C49.9203 47.977 50.3971 47.5073 50.3971 46.9279V45.2494C50.3971 44.7563 50.61 44.2835 50.9816 43.9523C51.358 43.6168 51.847 43.4595 52.3583 43.5101C53.2487 43.5979 53.9462 44.432 53.9462 45.4089V48.0467C53.9462 48.6261 54.4229 49.0958 55.011 49.0958C55.5989 49.0958 56.0757 48.6262 56.0757 48.0467V46.3682C56.0757 45.8751 56.2886 45.4023 56.6602 45.0711C57.0366 44.7357 57.5252 44.5782 58.037 44.6291C58.9273 44.7168 59.6249 45.5509 59.6249 46.5277V58.1179H59.6242Z" fill="#F8B100"/>
</g>
<defs>
<clipPath id="clip0">
<rect width="68" height="67" fill="white"/>
</clipPath>
</defs>
</svg>
