<svg width="60" height="59" viewBox="0 0 60 59" fill="none" xmlns="http://www.w3.org/2000/svg">
<path d="M39.024 22.003L19.696 37.123C19.312 37.438 19.184 38.068 19.568 38.446C19.76 38.698 20.016 38.824 20.336 38.824C20.528 38.824 20.784 38.761 20.912 38.635L40.24 23.515C40.624 23.2 40.752 22.57 40.368 22.192C40.048 21.751 39.472 21.688 39.024 22.003Z" fill="#F8B100"/>
<path d="M24.88 28.744C25.136 28.744 25.392 28.744 25.648 28.681C28.272 28.303 30.128 25.846 29.68 23.2C29.488 21.94 28.784 20.806 27.76 20.05C26.736 19.294 25.456 18.979 24.176 19.168C22.896 19.357 21.744 20.05 20.976 21.058C20.208 22.066 19.888 23.326 20.08 24.586C20.464 27.043 22.576 28.744 24.88 28.744ZM24.432 21.121C24.56 21.121 24.752 21.058 24.88 21.058C26.288 21.058 27.568 22.066 27.76 23.515C28.016 25.09 26.928 26.539 25.328 26.791C23.728 27.043 22.256 25.972 22 24.397C21.744 22.822 22.896 21.373 24.432 21.121Z" fill="#F8B100"/>
<path d="M35.12 31.894C32.432 31.894 30.256 34.036 30.256 36.682C30.256 39.328 32.432 41.47 35.12 41.47C37.808 41.47 39.984 39.328 39.984 36.682C39.92 34.036 37.744 31.894 35.12 31.894ZM35.12 39.517C33.52 39.517 32.176 38.194 32.176 36.619C32.176 35.044 33.52 33.721 35.12 33.721C36.72 33.721 38.064 35.044 38.064 36.619C38 38.257 36.72 39.517 35.12 39.517Z" fill="#F8B100"/>
<path d="M59.056 29.689C59.056 29.626 59.12 29.5 59.12 29.437C59.12 26.728 56.24 25.342 53.744 24.145C51.952 23.263 50.032 22.318 49.52 21.184C49.008 19.987 49.712 18.034 50.416 16.207C51.376 13.624 52.336 10.978 50.544 9.214C48.752 7.45 46.192 8.08 43.632 8.647C41.84 9.025 39.984 9.466 38.768 8.962C37.552 8.458 36.528 6.883 35.568 5.371C34.16 3.229 32.624 0.771999 29.936 0.771999C27.248 0.771999 25.712 3.229 24.368 5.434C23.408 7.009 22.448 8.584 21.232 9.088C20.016 9.592 18.096 9.151 16.304 8.71C13.744 8.08 11.12 7.45 9.39198 9.151C7.59998 10.915 8.49598 13.561 9.32798 16.144C9.96798 18.034 10.544 19.924 10.032 21.184C9.51998 22.381 7.72798 23.263 5.99998 24.145C3.56798 25.405 0.815979 26.791 0.815979 29.437C0.815979 29.5 0.815979 29.626 0.879979 29.689C0.879979 29.752 0.815979 29.878 0.815979 29.941C0.815979 32.587 3.56798 34.036 5.99998 35.233C7.72798 36.115 9.51998 36.997 10.032 38.194C10.544 39.391 9.90398 41.344 9.32798 43.234C8.49598 45.817 7.59998 48.463 9.39198 50.227C11.184 51.991 13.808 51.298 16.304 50.668C18.096 50.227 20.016 49.786 21.232 50.29C22.448 50.794 23.408 52.369 24.368 53.944C25.712 56.149 27.248 58.606 29.936 58.606C32.624 58.606 34.224 56.149 35.568 54.007C36.528 52.495 37.552 50.92 38.768 50.416C40.048 49.912 41.84 50.29 43.632 50.731C46.128 51.298 48.752 51.928 50.544 50.164C52.336 48.4 51.376 45.754 50.416 43.171C49.712 41.281 49.008 39.391 49.52 38.194C50.032 36.997 51.888 36.115 53.744 35.233C56.24 33.973 59.12 32.587 59.12 29.941C59.12 29.815 59.056 29.752 59.056 29.689ZM52.848 33.532C50.736 34.603 48.496 35.674 47.728 37.501C46.896 39.391 47.792 41.659 48.56 43.864C49.328 45.943 50.096 47.959 49.136 48.841C48.112 49.849 46.128 49.408 44.016 48.904C41.904 48.4 39.792 47.959 37.936 48.715C36.144 49.471 34.992 51.235 33.904 52.999C32.688 54.889 31.536 56.716 29.872 56.716C28.272 56.716 27.12 54.889 25.904 52.936C24.816 51.109 23.664 49.282 21.872 48.526C20.016 47.77 17.84 48.274 15.728 48.841C13.616 49.345 11.632 49.849 10.608 48.904C9.64798 47.959 10.288 45.943 10.992 43.864C11.696 41.659 12.464 39.391 11.632 37.564C10.864 35.737 8.75198 34.666 6.70398 33.658C4.59198 32.587 2.60798 31.579 2.60798 30.004C2.60798 29.941 2.60798 29.815 2.54398 29.752C2.54398 29.689 2.60798 29.563 2.60798 29.5C2.60798 27.988 4.59198 26.98 6.70398 25.846C8.75198 24.838 10.864 23.767 11.632 21.94C12.4 20.05 11.696 17.782 10.992 15.64C10.288 13.498 9.64798 11.482 10.608 10.6C11.632 9.592 13.616 10.096 15.728 10.663C17.84 11.167 20.016 11.734 21.872 10.978C23.664 10.222 24.816 8.395 25.904 6.568C27.12 4.615 28.208 2.788 29.872 2.788C31.536 2.788 32.688 4.615 33.904 6.505C35.056 8.269 36.208 10.033 37.936 10.789C39.792 11.545 41.904 11.041 44.016 10.6C46.128 10.096 48.112 9.655 49.136 10.663C50.096 11.545 49.328 13.561 48.56 15.64C47.728 17.845 46.896 20.113 47.728 22.003C48.496 23.83 50.736 24.901 52.848 25.972C55.088 27.043 57.136 28.114 57.136 29.626C57.136 29.689 57.136 29.815 57.2 29.878C57.2 29.941 57.136 30.067 57.136 30.13C57.2 31.39 55.088 32.461 52.848 33.532Z" fill="#F8B100"/>
</svg>
