<svg width="60" height="56" viewBox="0 0 60 56" fill="none" xmlns="http://www.w3.org/2000/svg">
<path d="M37.9129 39.9497C37.7279 39.9497 37.5457 39.9064 37.3821 39.8236L29.6606 35.9304L21.9386 39.8236C21.7502 39.9186 21.5379 39.9611 21.3257 39.9464C21.1134 39.9318 20.9097 39.8604 20.7375 39.7405C20.5653 39.6206 20.4316 39.457 20.3513 39.268C20.271 39.079 20.2475 38.8722 20.2834 38.6711L21.7582 30.4253L15.5109 24.5859C15.3586 24.4434 15.2508 24.263 15.1999 24.0649C15.1489 23.8668 15.1568 23.659 15.2225 23.465C15.2883 23.271 15.4094 23.0985 15.572 22.967C15.7347 22.8355 15.9325 22.7503 16.143 22.7209L24.7768 21.5172L28.6376 14.0158C29.023 13.2681 30.2984 13.2681 30.6838 14.0158L34.5445 21.5172L43.1777 22.7209C43.3883 22.7503 43.5861 22.8355 43.7487 22.967C43.9114 23.0985 44.0325 23.271 44.0982 23.465C44.164 23.659 44.1718 23.8668 44.1209 24.0649C44.0699 24.263 43.9622 24.4434 43.8099 24.5859L37.5626 30.4253L39.0374 38.6711C39.0653 38.8281 39.0572 38.989 39.0135 39.1427C38.9699 39.2963 38.8918 39.439 38.7847 39.5607C38.6777 39.6824 38.5442 39.7803 38.3936 39.8475C38.243 39.9147 38.079 39.9495 37.9129 39.9496L37.9129 39.9497ZM18.7584 24.5667L23.7804 29.261C23.9126 29.3848 24.0116 29.5376 24.0687 29.7061C24.1259 29.8747 24.1395 30.054 24.1084 30.2288L22.9227 36.8564L29.1299 33.7268C29.2933 33.6437 29.4756 33.6003 29.6606 33.6003C29.8457 33.6003 30.0279 33.6437 30.1914 33.7268L36.398 36.8564L35.2128 30.2288C35.1818 30.054 35.1954 29.8747 35.2525 29.7061C35.3097 29.5376 35.4086 29.3848 35.5409 29.261L40.5623 24.5667L33.6227 23.599C33.4397 23.5735 33.266 23.5057 33.1163 23.4015C32.9667 23.2973 32.8458 23.1598 32.7639 23.0008L29.6606 16.9713L26.5573 23.0009C26.4755 23.1599 26.3545 23.2974 26.2049 23.4016C26.0553 23.5058 25.8815 23.5736 25.6985 23.599L18.7584 24.5667Z" fill="#F8B100"/>
<path d="M29.6606 47.7608C18.2766 47.7608 9.0152 38.8794 9.0152 27.9633C9.0152 17.0471 18.2766 8.1669 29.6606 8.1669C41.0446 8.1669 50.306 17.0472 50.306 27.9633C50.306 38.8795 41.0446 47.7608 29.6606 47.7608ZM29.6606 10.3543C26.0285 10.3543 22.478 11.3871 19.458 13.3221C16.438 15.2571 14.0842 18.0073 12.6943 21.2251C11.3044 24.4428 10.9407 27.9835 11.6494 31.3994C12.358 34.8154 14.1071 37.9531 16.6754 40.4158C19.2437 42.8785 22.516 44.5556 26.0783 45.235C29.6406 45.9144 33.3331 45.5656 36.6887 44.2327C40.0443 42.8998 42.9123 40.6427 44.9302 37.7467C46.948 34.8508 48.0249 31.4461 48.0248 27.9633C48.0191 23.2947 46.0824 18.8189 42.6397 15.5178C39.197 12.2166 34.5293 10.3597 29.6606 10.3544V10.3543Z" fill="#F8B100"/>
<path d="M35.3471 55.793C34.6379 55.7925 33.9408 55.6167 33.3231 55.2825L30.5623 53.7946C30.2869 53.6465 29.9764 53.5687 29.6606 53.5687C29.3449 53.5687 29.0344 53.6465 28.759 53.7946L25.9965 55.2825C25.1053 55.7652 24.0584 55.9118 23.0605 55.6938C22.0626 55.4757 21.1853 54.9086 20.6002 54.1033L18.7824 51.6124C18.5994 51.3669 18.3548 51.1697 18.0712 51.0388C17.7876 50.9079 17.4743 50.8477 17.16 50.8637L13.9943 51.0506C12.9734 51.1156 11.9639 50.8123 11.1642 50.2003C10.3644 49.5883 9.83217 48.7117 9.67186 47.7426L9.16113 44.7434C9.11131 44.4439 8.98137 44.1619 8.784 43.9249C8.58663 43.6879 8.32857 43.504 8.03499 43.3911L5.10323 42.2504C4.15342 41.8836 3.3806 41.1901 2.93608 40.3056C2.49156 39.4211 2.40738 38.4094 2.70001 37.4685L3.59614 34.5546C3.6842 34.2648 3.69369 33.9582 3.62372 33.6638C3.55374 33.3694 3.40661 33.097 3.19625 32.8724L1.06816 30.6143C0.380911 29.8889 0.000102826 28.944 2.08209e-08 27.9639C-0.000102785 26.9838 0.380507 26.0389 1.0676 25.3133L3.19681 23.0542C3.40702 22.8293 3.55403 22.5567 3.62399 22.2622C3.69395 21.9677 3.68456 21.6609 3.59669 21.3709L2.70001 18.457C2.40763 17.5161 2.49193 16.5045 2.93642 15.62C3.3809 14.7356 4.15358 14.042 5.10323 13.6751L8.03778 12.5333C8.32958 12.4187 8.58602 12.2345 8.78281 11.9982C8.97959 11.7619 9.1102 11.4814 9.16226 11.1832L9.67353 8.18285C9.83357 7.21358 10.3658 6.33676 11.1658 5.72466C11.9657 5.11256 12.9754 4.80944 13.9965 4.87488L17.1622 5.06287C17.4769 5.08217 17.7914 5.02331 18.0754 4.89196C18.3594 4.76061 18.6033 4.56122 18.7834 4.31306L20.6008 1.82436C21.1856 1.01837 22.0632 0.450816 23.0616 0.23289C24.06 0.0149631 25.1072 0.162373 25.9982 0.646237L28.7584 2.13305C29.0345 2.28016 29.3451 2.35735 29.661 2.35735C29.9768 2.35735 30.2874 2.28016 30.5635 2.13305L33.3242 0.645157C34.2153 0.162319 35.2621 0.0154855 36.26 0.233358C37.2579 0.451231 38.1353 1.01815 38.7205 1.82329L40.539 4.31417C40.72 4.56124 40.964 4.75976 41.2477 4.89082C41.5314 5.02188 41.8453 5.08113 42.1597 5.06291L45.3265 4.876C46.3464 4.8156 47.3533 5.12059 48.152 5.73181C48.9507 6.34303 49.4842 7.21692 49.6489 8.18395L50.1601 11.1843C50.2121 11.4827 50.3427 11.7634 50.5395 11.9998C50.7362 12.2363 50.9927 12.4207 51.2846 12.5355L54.2175 13.6762C55.1675 14.043 55.9406 14.7366 56.3852 15.6214C56.8298 16.5061 56.914 17.5181 56.6212 18.4592L55.7251 21.372C55.6369 21.6618 55.6274 21.9684 55.6972 22.2628C55.7671 22.5571 55.9141 22.8296 56.1244 23.0543L58.2525 25.3122C58.9396 26.0378 59.3203 26.9826 59.3204 27.9627C59.3205 28.9427 58.94 29.8877 58.2531 30.6133L56.125 32.8723C55.9145 33.0971 55.7673 33.3697 55.6972 33.6642C55.6271 33.9588 55.6366 34.2656 55.7246 34.5557L56.6207 37.4695C56.9135 38.4104 56.8294 39.4222 56.3848 40.3067C55.9403 41.1913 55.1674 41.8848 54.2175 42.2515L51.2835 43.3933C50.9915 43.508 50.7349 43.6923 50.538 43.9287C50.3411 44.1652 50.2105 44.446 50.1585 44.7444L49.6478 47.7437C49.4841 48.7114 48.9507 49.5861 48.1516 50.1976C47.3524 50.809 46.3446 51.1135 45.3242 51.0517L42.1596 50.8647C41.8448 50.8458 41.5301 50.9048 41.2459 51.0361C40.9617 51.1674 40.7174 51.3666 40.5367 51.6146L38.7205 54.1022C38.342 54.6239 37.8376 55.0502 37.2502 55.3446C36.6628 55.639 36.0099 55.7928 35.3471 55.793ZM29.6606 51.3838C30.3678 51.3829 31.0634 51.5562 31.6807 51.887L34.4409 53.3748C34.8388 53.5913 35.3066 53.6573 35.7527 53.5598C36.1987 53.4624 36.5906 53.2086 36.8514 52.8482L38.6681 50.3595C39.0756 49.8075 39.6227 49.3638 40.2581 49.0703C40.8936 48.7768 41.5964 48.643 42.3005 48.6815L45.4651 48.8684C45.9213 48.8979 46.3724 48.7627 46.7299 48.4893C47.0873 48.216 47.3251 47.8243 47.3966 47.3912L47.9073 44.392C48.0235 43.7236 48.3159 43.0949 48.7566 42.5653C49.1974 42.0357 49.772 41.6229 50.4258 41.366L53.3592 40.2242C53.7835 40.0605 54.1287 39.7509 54.3273 39.356C54.5259 38.961 54.5636 38.5092 54.433 38.089L53.5369 35.1752C53.3396 34.5257 53.3183 33.8387 53.475 33.1792C53.6317 32.5196 53.9613 31.9093 54.4325 31.4059L56.56 29.1478L56.5606 29.1467C56.8673 28.8225 57.0372 28.4004 57.0371 27.9626C57.037 27.5248 56.8669 27.1028 56.56 26.7787L54.4325 24.5218C53.9613 24.0184 53.6319 23.408 53.4753 22.7484C53.3186 22.0889 53.3401 21.4019 53.5375 20.7525L54.4336 17.8397C54.5643 17.4193 54.5266 16.9672 54.3279 16.5721C54.1292 16.1769 53.7837 15.8672 53.3592 15.7035L50.4269 14.5627C49.7731 14.3059 49.1986 13.8931 48.7579 13.3635C48.3173 12.8339 48.025 12.2051 47.909 11.5368L47.3977 8.53643C47.3222 8.10542 47.0835 7.7163 46.7273 7.44369C46.371 7.17108 45.9224 7.03417 45.4673 7.05922L42.3005 7.24614C41.5965 7.28724 40.8931 7.1547 40.2577 6.86114C39.6222 6.56759 39.0757 6.12282 38.6704 5.56925L36.8519 3.07833C36.5903 2.71904 36.1986 2.46605 35.753 2.36869C35.3075 2.27134 34.8401 2.3366 34.442 2.55176L31.6801 4.04073C31.0627 4.37064 30.3677 4.54381 29.6609 4.54381C28.9541 4.54381 28.2591 4.37064 27.6417 4.04073L24.8804 2.55282C24.4823 2.33674 24.0145 2.27095 23.5685 2.36836C23.1225 2.46576 22.7306 2.71933 22.4694 3.07939L20.6526 5.56703C20.248 6.1216 19.7017 6.56725 19.0659 6.86125C18.4302 7.15526 17.7264 7.28778 17.0219 7.24612L13.8551 7.05813C13.4001 7.03336 12.9516 7.17038 12.5955 7.44294C12.2393 7.7155 12.0005 8.10445 11.9247 8.53533L11.4134 11.5357C11.2972 12.2038 11.0049 12.8324 10.5642 13.3618C10.1236 13.8911 9.54916 14.3038 8.8955 14.5606L5.96149 15.7024C5.53731 15.8664 5.19219 16.1762 4.9936 16.5713C4.79502 16.9664 4.75726 17.4183 4.88771 17.8386L5.78438 20.7514C5.98153 21.4008 6.00281 22.0877 5.84621 22.7472C5.68961 23.4067 5.3603 24.0171 4.88938 24.5207L2.76016 26.7798C2.45346 27.1038 2.28356 27.5257 2.28356 27.9633C2.28356 28.4008 2.45346 28.8227 2.76016 29.1467L4.88825 31.4047C5.35948 31.9081 5.68902 32.5185 5.84573 33.1781C6.00243 33.8376 5.98112 34.5246 5.78381 35.1741L4.8877 38.0879C4.75712 38.5081 4.79484 38.96 4.99345 39.3549C5.19207 39.7498 5.53728 40.0594 5.96148 40.2231L8.89376 41.3639C9.54753 41.6212 10.122 42.0342 10.5627 42.564C11.0034 43.0937 11.2959 43.7225 11.4123 44.3909L11.923 47.3902C11.9971 47.8218 12.2355 48.2118 12.592 48.4846C12.9486 48.7575 13.398 48.8939 13.8534 48.8674L17.0202 48.6804C17.7246 48.6374 18.4287 48.7691 19.0646 49.0628C19.7005 49.3566 20.2469 49.8024 20.6509 50.3574L22.4688 52.8482C22.7297 53.2085 23.1216 53.4622 23.5675 53.5597C24.0135 53.6571 24.4813 53.5912 24.8792 53.3748L27.6411 51.8869C28.2582 51.5561 28.9536 51.3828 29.6606 51.3838Z" fill="#F8B100"/>
</svg>
