<svg width="244" height="62" viewBox="0 0 244 62" fill="none" xmlns="http://www.w3.org/2000/svg">
<path d="M0.0107422 57.0928C0.0107422 60.8699 1.29526 62 4.00054 62C4.77885 62 5.7668 61.8673 6.4339 61.6543L6.1249 60.444C5.63112 60.6304 4.77885 60.7501 4.14882 60.7501C2.12288 60.7501 1.3694 60.2181 1.3694 57.1064C1.3694 53.9811 2.12288 53.5552 4.14882 53.5552C4.77885 53.5552 5.63112 53.675 6.1249 53.8745L6.4339 52.6642C5.77922 52.4649 4.77885 52.3186 4.00054 52.3186C1.29526 52.3186 0.0107422 53.3026 0.0107422 57.0928ZM14.9752 61.814V53.7019H17.9151V52.5445H10.7509V53.7019H13.7029V61.814H14.9752ZM24.4185 57.4255V53.6884H27.136C27.9387 53.6884 28.359 54.38 28.359 55.6299C28.359 56.747 27.9387 57.4255 27.0865 57.4255H24.4185ZM24.4185 61.814V58.5823H27.3708C29.0876 58.5823 29.7425 57.1593 29.7425 55.6432C29.7425 53.9412 29.1866 52.5445 27.3213 52.5445H23.1586V61.814H24.4185ZM38.9138 52.3186C36.2087 52.3186 34.9118 53.3425 34.9118 57.1194C34.9118 60.9361 36.2087 62 38.9138 62C41.6313 62 42.9162 60.9361 42.9162 57.1194C42.9162 53.3425 41.6189 52.3186 38.9138 52.3186ZM38.9138 60.7901C36.8758 60.7901 36.2704 60.1515 36.2704 57.1461C36.2704 54.034 36.8758 53.5155 38.9138 53.5155C40.9644 53.5155 41.5818 54.034 41.5818 57.1461C41.5818 60.1515 40.9644 60.7901 38.9138 60.7901ZM55.7806 52.5445H54.2614C53.0015 55.0583 51.5809 57.638 50.0738 60.1648V52.5445H48.8384V61.814H50.5063C51.902 59.5398 53.2979 56.9733 54.5453 54.5263V61.814H55.7806V52.5445ZM65.2605 61.814V53.7019H68.2005V52.5445H61.0362V53.7019H63.9882V61.814H65.2605ZM73.4561 52.5445V61.814H79.521V60.657H74.7038V57.4784H78.1255V56.3349H74.7038V53.7019H79.521V52.5445H73.4561ZM90.4095 53.7019V61.814H91.6573V52.5445H86.0986C85.9628 55.9226 85.1969 59.0611 84.357 61.814H85.7035C86.5311 59.2606 87.099 56.1753 87.2597 53.7019H90.4095ZM99.2724 60.6835V57.279H102.225C102.99 57.279 103.336 57.9442 103.336 59.0078C103.336 60.0451 103.052 60.6835 102.274 60.6835H99.2724ZM98.0125 52.5445V61.814H102.509C103.966 61.814 104.695 60.8166 104.695 59.0214C104.695 57.3722 104.164 56.1485 102.397 56.1485H99.2724V52.5445H98.0125ZM111.631 57.4919H115.756V61.814H117.004V52.5445H115.756V56.2551H111.631V52.5445H110.383V61.814H111.631V57.4919ZM124.619 60.6835V57.279H127.571C128.337 57.279 128.683 57.9442 128.683 59.0078C128.683 60.0451 128.398 60.6835 127.62 60.6835H124.619ZM123.359 52.5445V61.814H127.855C129.313 61.814 130.041 60.8166 130.041 59.0214C130.041 57.3722 129.51 56.1485 127.744 56.1485H124.619V52.5445H123.359ZM130.906 52.5445V61.814H132.166V52.5445H130.906ZM145.488 52.5445H143.969C142.709 55.0583 141.288 57.638 139.781 60.1648V52.5445H138.546V61.814H140.213C141.609 59.5398 143.005 56.9733 144.253 54.5263V61.814H145.488V52.5445ZM140.3 50.2306C140.3 51.4409 140.917 51.9861 142.042 51.9861C143.19 51.9861 143.783 51.4409 143.783 50.2306H142.968C142.968 50.9223 142.647 51.0685 142.066 51.0685C141.461 51.0685 141.164 50.9223 141.164 50.2306H140.3ZM167.293 58.9944C166.527 56.8669 165.601 54.6059 164.687 52.5445H162.908V61.814H164.118V54.2603C165.008 56.3481 165.934 58.7685 166.725 60.8829H167.688C168.491 58.7951 169.442 56.4014 170.356 54.2603V61.814H171.591V52.5445H169.911C168.985 54.5926 168.059 56.8536 167.293 58.9944ZM183.789 61.814H185.197C184.197 59.3006 182.949 55.6033 182.023 52.5445H179.985C178.861 55.4838 177.699 58.8883 176.798 61.814H178.095C178.342 60.976 178.601 60.1116 178.873 59.2339H182.863C183.171 60.1648 183.505 61.0425 183.789 61.814ZM181.121 53.662C181.529 55.0713 181.998 56.6141 182.492 58.0769H179.231C179.725 56.5742 180.244 55.0847 180.775 53.662H181.121ZM191.577 61.814V53.7019H195.9V52.5445H190.329V61.814H191.577ZM205.578 61.814H206.986C205.986 59.3006 204.738 55.6033 203.812 52.5445H201.774C200.65 55.4838 199.488 58.8883 198.587 61.814H199.884C200.131 60.976 200.39 60.1116 200.662 59.2339H204.652C204.96 60.1648 205.294 61.0425 205.578 61.814ZM202.91 53.662C203.318 55.0713 203.787 56.6141 204.281 58.0769H201.02C201.514 56.5742 202.033 55.0847 202.564 53.662H202.91ZM213.416 57.4654H214.737C216.133 57.4654 216.676 57.8909 216.676 59.1541C216.676 60.3642 216.121 60.8032 214.329 60.8032C213.588 60.8032 212.526 60.6969 211.896 60.4839L211.637 61.641C212.39 61.8274 213.601 62 214.49 62C216.862 62 218.035 61.3217 218.035 59.2872C218.035 57.9571 217.652 56.9468 216.022 56.8669C217.553 56.7205 217.813 55.7895 217.813 54.6325C217.813 53.0502 216.948 52.3186 214.49 52.3186C213.502 52.3186 212.427 52.5046 211.711 52.6642L211.982 53.8215C212.538 53.6351 213.588 53.5155 214.329 53.5155C216.096 53.5155 216.491 53.8879 216.491 54.8588C216.491 55.9226 216.071 56.3349 214.725 56.3349H213.416V57.4654ZM230.986 52.5445H229.467C228.207 55.0583 226.787 57.638 225.28 60.1648V52.5445H224.044V61.814H225.712C227.108 59.5398 228.504 56.9733 229.751 54.5263V61.814H230.986V52.5445ZM238.614 57.4919H242.739V61.814H243.987V52.5445H242.739V56.2551H238.614V52.5445H237.366V61.814H238.614V57.4919Z" fill="#0A4377"/>
<path d="M162.003 34.0416V25.4355H170.438C175.226 25.4355 177.437 21.1127 177.437 16.1158C177.437 10.4448 175.669 6.39954 170.401 6.39954H156.072V34.0416H162.003ZM162.003 20.1611V11.8725H168.412C170.033 11.8725 170.916 13.1017 170.916 16.1158C170.916 19.0109 169.885 20.1611 168.338 20.1611H162.003Z" fill="#0A4377"/>
<path d="M150.446 29.0013H145.151L138.535 39.6377H130.597L138.138 27.7669C133.728 25.9939 131.523 22.528 131.523 17.3681C131.523 13.949 132.559 11.2662 134.632 9.3196C136.705 7.37282 139.55 6.39954 143.166 6.39954H150.446V12.9996H143.74C142.064 12.9996 140.755 13.4109 139.815 14.234C138.873 15.057 138.403 16.2602 138.403 17.8429C138.403 19.2674 138.866 20.4066 139.793 21.2614C140.719 22.1162 141.99 22.5436 143.608 22.5436H150.446V29.0013Z" fill="#0A4377"/>
<path d="M10.707 39.6377L23.8441 6.39954H30.0623L43.1999 39.6377H36.1495L33.347 32.2358H20.3849L17.5822 39.6377H10.707ZM22.7931 25.8239H30.9383L26.8659 15.1216L22.7931 25.8239Z" fill="#0A4377"/>
<path d="M85.3247 39.6378V12.7995L87.7613 6.63538H97.849C101.469 6.63538 104.33 7.68808 106.432 9.7939C108.534 11.8997 109.585 14.6816 109.585 18.139C109.585 21.8163 108.417 24.6685 106.082 26.6959C103.746 28.7231 100.783 29.7372 97.1921 29.7372H92.0685V39.6378H85.3247ZM92.0685 23.2779H97.4113C99.0752 23.2779 100.382 22.8064 101.331 21.8633C102.279 20.9206 102.754 19.6949 102.754 18.186C102.754 16.583 102.272 15.3492 101.309 14.4851C100.345 13.6208 99.0022 13.1886 97.2798 13.1886H92.0685V23.2779Z" fill="#0A4377"/>
<path d="M195.606 22.1834C200.468 21.9059 202.015 18.4558 202.015 14.4899C202.015 9.92922 200.247 6.39954 194.98 6.39954H180.651V34.0416H186.581V24.1663H189.233C190.817 24.1663 192.659 26.5067 196.637 34.0416H204.041C199.252 25.3565 197.337 22.8575 195.606 22.1834ZM186.581 11.833H193.248C194.574 11.833 195.422 12.9828 195.422 15.4812C195.422 17.9402 194.463 18.9313 193.175 18.9313H186.581V11.833Z" fill="#0A4377"/>
<path d="M6.79217 12.9998V39.6377H0V6.39954H17.3551L14.746 12.9998H6.79217Z" fill="#0A4377"/>
<path fill-rule="evenodd" clip-rule="evenodd" d="M164.689 37.072H160.133H156.072V39.6483H160.133H165.031H205.544V37.072H164.689Z" fill="#0A4377"/>
<path fill-rule="evenodd" clip-rule="evenodd" d="M215.542 2.10255C214.366 0.928889 212.515 0.896473 211.303 2.0758L211.303 2.07621C210.131 3.21725 209.948 5.11155 210.812 6.48213C211.07 6.14217 211.321 5.83685 211.552 5.57712C212.696 4.2973 214.006 3.10258 215.542 2.10255Z" fill="#0A4377"/>
<path fill-rule="evenodd" clip-rule="evenodd" d="M224.604 0.0442527C228.748 -0.260659 232.203 1.03537 235.518 3.15253C236.507 3.78504 237.291 4.58815 238.097 5.32277C239.337 6.45449 241.187 8.8719 242.092 10.9964C247.763 24.3091 240.266 38.8997 226.479 39.8584C222.564 40.0558 216.768 39.903 212.526 39.903C211.203 39.903 209.425 40.1113 208.343 39.467C207.12 38.7401 206.958 37.7508 206.96 35.8737V20.9468C206.958 17.4218 207.321 15.411 208.347 12.4192C209.104 10.2151 210.779 7.67171 211.971 6.33759C214.827 3.14078 218.718 0.477207 224.604 0.0442527ZM223.669 32.1661C229.906 32.595 235.01 27.945 235.503 21.6822C236.043 14.8214 231.342 9.50604 225.712 8.95092C219.575 8.34555 214.346 13.4415 213.935 19.4982C213.808 21.3676 214.011 22.9059 214.544 24.5332C215.856 28.5437 219.608 31.887 223.669 32.1661Z" fill="#0A4377"/>
<path fill-rule="evenodd" clip-rule="evenodd" d="M214.778 20.5923C214.778 26.5046 219.23 31.2973 224.722 31.2973C230.213 31.2973 234.665 26.5046 234.665 20.5923C234.665 14.6799 230.213 9.88721 224.722 9.88721C219.23 9.88721 214.778 14.6799 214.778 20.5923ZM219.271 20.5923C219.271 23.8333 221.711 26.4602 224.722 26.4602C227.732 26.4602 230.172 23.8333 230.172 20.5923C230.172 17.3512 227.732 14.7243 224.722 14.7243C221.711 14.7243 219.271 17.3512 219.271 20.5923Z" fill="#0A4377"/>
<path d="M36.3928 39.6377L49.5301 6.39954H55.7483L68.8857 39.6377H61.8355L56.6243 25.8239L52.5518 15.1216L48.4789 25.8239L43.268 39.6377H36.3928Z" fill="#0A4377"/>
<path d="M73.3212 33.0375V26.422H78.6087L81.2176 19.8217H73.3212V12.9998H81.275L83.884 6.39954H73.3212H66.5291V39.6377H73.3212H83.884L81.275 33.0375H73.3212Z" fill="#0A4377"/>
<path d="M118.314 33.0375V26.422H123.602L126.211 19.8217H118.314V12.9998H126.268L128.877 6.39954H118.314H111.522V39.6377H118.314H128.877L126.268 33.0375H118.314Z" fill="#0A4377"/>
</svg>
